<svg width="115" height="120" viewBox="0 0 115 120" fill="none" xmlns="http://www.w3.org/2000/svg">
<g clip-path="url(#clip0_319_118)">
<path d="M101.687 15.5815H26.4652C19.5928 15.5815 14.0198 21.1949 14.0198 28.1173V117.655C14.0198 118.712 14.8695 119.568 15.9191 119.568H112.258C113.308 119.568 114.158 118.712 114.158 117.655V28.1173C114.158 21.1949 108.585 15.5815 101.712 15.5815H101.687Z" fill="#4C4C4C"/>
<path d="M80.5952 68.5186H47.1076V94.0431H80.5952V68.5186Z" fill="white"/>
<path d="M47.1076 68.5186H13.62V94.0431H47.1076V68.5186Z" fill="#363636"/>
<path d="M80.8201 42.9941H47.3325V68.5187H80.8201V42.9941Z" fill="#363636"/>
<path d="M80.8201 94.0181H47.3325V119.543H80.8201V94.0181Z" fill="#363636"/>
<path d="M114.008 68.5186H80.5202V94.0431H114.008V68.5186Z" fill="#363636"/>
<path d="M82.1447 58.8524L70.8989 47.525C70.549 47.1726 70.0492 46.9712 69.5494 46.9712C69.0496 46.9712 68.5747 47.1726 68.1999 47.525L30.5138 85.4846L13.4701 68.3172C12.7204 67.562 11.5208 67.562 10.7961 68.3172L0.549873 78.6378C0.200002 78.9902 7.62939e-05 79.4936 7.62939e-05 79.9971C7.62939e-05 80.5005 0.200002 80.9788 0.549873 81.3563L30.1889 111.211C30.5638 111.588 31.0386 111.764 31.5384 111.764C32.0382 111.764 32.5131 111.588 32.8879 111.211L82.1697 61.571C82.9194 60.8159 82.9194 59.6076 82.1697 58.8776L82.1447 58.8524Z" fill="#8DD140"/>
<path d="M31.0135 85.4593C30.8886 85.4845 30.7386 85.5349 30.6137 85.5852L13.47 68.3171C12.7203 67.5619 11.5207 67.5619 10.796 68.3171L0.549795 78.6377C-0.199928 79.3929 -0.199928 80.6011 0.549795 81.3311L30.0389 111.034C30.3138 111.311 30.6637 111.487 31.0135 111.563V85.4593Z" fill="#7BAF37"/>
<path d="M101.687 15.5815H26.4652C19.5928 15.5815 14.0198 21.1949 14.0198 28.1173V41.5844C14.0198 42.6416 14.8695 43.4975 15.9191 43.4975H112.258C113.308 43.4975 114.158 42.6416 114.158 41.5844V28.1173C114.158 21.1949 108.585 15.5815 101.712 15.5815H101.687Z" fill="#8DD140"/>
</g>
<defs>
<clipPath id="clip0_319_118">
<rect width="114.133" height="119.568" fill="white"/>
</clipPath>
</defs>
</svg>
