<svg width="113" height="126" viewBox="0 0 113 126" fill="none" xmlns="http://www.w3.org/2000/svg">
<g clip-path="url(#clip0_319_131)">
<path d="M111.505 19.7625L56.8401 0.100157C56.49 -0.024922 56.0899 -0.024922 55.7398 0.100157L1.07527 19.7625C0.425098 19.9876 -1.52588e-05 20.613 -1.52588e-05 21.2885C-1.52588e-05 21.9639 0.425098 22.5643 1.07527 22.8144L55.7648 42.4768C55.9399 42.5518 56.1149 42.5768 56.315 42.5768C56.515 42.5768 56.6901 42.5518 56.8651 42.4768L111.555 22.8144C112.205 22.5893 112.63 21.9889 112.63 21.2885C112.63 20.588 112.205 20.0127 111.555 19.7625H111.505Z" fill="#4C4C4C"/>
<path d="M56.8401 39.4498L2.15056 19.7625C1.65042 19.5874 1.10028 19.6624 0.675165 19.9626C0.250051 20.2628 -1.52588e-05 20.7631 -1.52588e-05 21.2884V91.3574C-1.52588e-05 92.0078 0.375085 92.5832 0.975244 92.8334L55.6648 116.023C55.8649 116.098 56.0899 116.148 56.29 116.148C56.5901 116.148 56.9151 116.048 57.1902 115.873C57.6403 115.573 57.9154 115.072 57.9154 114.522V40.9508C57.9154 40.2754 57.4903 39.65 56.8401 39.4248V39.4498Z" fill="#4C4C4C"/>
<path d="M111.905 19.9626C111.48 19.6624 110.93 19.5874 110.429 19.7625L55.7398 39.4248C55.0897 39.65 54.6645 40.2503 54.6645 40.9508V114.522C54.6645 115.072 54.9396 115.573 55.3897 115.873C55.6648 116.048 55.9649 116.123 56.265 116.123C56.49 116.123 56.7151 116.073 56.9151 115.973L111.605 91.4325C112.18 91.1823 112.555 90.607 112.555 89.9566V21.2884C112.555 20.7631 112.305 20.2628 111.88 19.9626H111.905Z" fill="#363636"/>
<path d="M105.928 88.5056H71.494C70.5938 88.5056 69.8686 89.2311 69.8686 90.1316V111.745C69.8686 119.475 76.1703 125.779 83.8973 125.779H93.4999C101.227 125.779 107.529 119.475 107.529 111.745V90.1316C107.529 89.2311 106.803 88.5056 105.903 88.5056H105.928Z" fill="#8DD140"/>
<path d="M101.077 92.258H76.7704C75.5701 92.258 74.6199 91.2824 74.6199 90.1067V75.9228C74.6199 68.0428 81.0466 61.6138 88.9237 61.6138C96.8008 61.6138 103.227 68.0428 103.227 75.9228V90.1067C103.227 91.2824 102.252 92.258 101.077 92.258ZM78.921 87.9553H98.9263V75.9228C98.9263 70.4193 94.4501 65.9165 88.9237 65.9165C83.3972 65.9165 78.921 70.3943 78.921 75.9228V87.9553Z" fill="#8DD140"/>
<path d="M93.4499 102.765C93.4499 100.163 91.3243 98.0366 88.7236 98.0366C86.1229 98.0366 83.9973 100.163 83.9973 102.765C83.9973 104.741 85.2227 106.442 86.9481 107.142V113.696H90.4241V107.167C92.1995 106.492 93.4249 104.766 93.4249 102.765H93.4499Z" fill="white"/>
<path d="M37.685 34.2716L91.3743 12.533L74.0197 6.27905L18.88 27.4924L37.685 34.2716Z" fill="#7BAF37"/>
<path d="M18.88 27.4922V100.588L37.685 108.418V34.2714L18.88 27.4922Z" fill="#8DD140"/>
</g>
<defs>
<clipPath id="clip0_319_131">
<rect width="112.58" height="125.779" fill="white"/>
</clipPath>
</defs>
</svg>
