<svg width="104" height="104" viewBox="0 0 104 104" fill="none" xmlns="http://www.w3.org/2000/svg">
<g clip-path="url(#clip0_128_259)">
<path d="M52 103.5C80.4427 103.5 103.5 80.4427 103.5 52C103.5 23.5573 80.4427 0.5 52 0.5C23.5573 0.5 0.5 23.5573 0.5 52C0.5 80.4427 23.5573 103.5 52 103.5Z" fill="white" stroke="#C8C8C8"/>
<path d="M57.8244 23.0955C57.8518 24.6981 58.5696 26.2122 59.7888 27.2392C61.0081 28.2661 62.6109 28.7062 64.1781 28.4432C65.3343 28.4599 66.2631 29.4148 66.2631 30.5829C66.2631 31.7537 65.3343 32.7059 64.1781 32.7225H34.5299C31.0201 32.7225 28.1762 35.5957 28.1762 39.1415C28.1762 42.6873 31.0201 45.5604 34.5299 45.5604H72.6468C73.8057 45.5771 74.7346 46.5292 74.7346 47.7001C74.7346 48.8681 73.8058 49.8204 72.6468 49.8397H30.2612C21.9075 50.1774 21.9075 62.365 30.294 62.6775L68.3808 62.6747C68.9452 62.6692 69.4877 62.8879 69.8877 63.2865C70.2904 63.685 70.5206 64.2303 70.5233 64.7978C70.5288 65.368 70.3069 65.916 69.9123 66.3201C69.515 66.7243 68.9753 66.9512 68.4136 66.954H42.9991C39.4921 66.954 36.6481 69.8272 36.6481 73.373C36.6481 76.916 39.4921 79.7919 42.9991 79.7919H56.7641C57.3504 79.7919 57.8217 80.2708 57.8244 80.8604C57.8244 82.0423 58.7724 83 59.9423 83C61.1122 83 62.0601 82.0422 62.0601 80.8604C62.0574 77.9069 59.6874 75.5126 56.764 75.5126H43.0208C42.4536 75.5375 41.9001 75.3188 41.5001 74.9119C41.1001 74.505 40.8864 73.9459 40.9138 73.3729C40.8864 72.8027 41.0946 72.2464 41.4919 71.8394C41.8892 71.4325 42.4345 71.2139 42.9988 71.2332H68.4435C71.9258 71.1862 74.7232 68.3185 74.715 64.7977C74.7068 61.2796 71.8957 58.423 68.4133 58.3953H30.2936C29.1347 58.3787 28.2059 57.4265 28.2059 56.2557C28.2059 55.0876 29.1346 54.1354 30.2936 54.116H72.6463C76.156 54.116 79 51.2429 79 47.6998C79 44.1541 76.156 41.2809 72.6463 41.2809H34.5294C33.3595 41.2809 32.4115 40.3231 32.4115 39.1412C32.4115 37.9594 33.3595 37.0016 34.5294 37.0016H64.24C73.4922 36.3594 71.8923 23.181 63.1167 24.1638C62.8344 24.1638 62.5632 24.0476 62.3632 23.8427C62.1632 23.6379 62.0536 23.3611 62.0591 23.0733C62.0235 21.9135 61.0782 20.9945 59.9302 21C58.7822 21.0056 57.8479 21.9356 57.8233 23.0954L57.8244 23.0955Z" fill="#8DD140"/>
</g>
<defs>
<clipPath id="clip0_128_259">
<rect width="104" height="104" fill="white"/>
</clipPath>
</defs>
</svg>
