<svg width="104" height="104" viewBox="0 0 104 104" fill="none" xmlns="http://www.w3.org/2000/svg">
<g clip-path="url(#clip0_127_249)">
<path d="M52 103.5C80.4427 103.5 103.5 80.4427 103.5 52C103.5 23.5573 80.4427 0.5 52 0.5C23.5573 0.5 0.5 23.5573 0.5 52C0.5 80.4427 23.5573 103.5 52 103.5Z" fill="white" stroke="#C8C8C8"/>
<path d="M38.616 84.5653C38.779 84.6484 39.0251 84.7283 39.1881 84.7283C39.5972 84.7283 39.9233 84.5653 40.1693 84.2361L67.9049 48.0721C68.2309 47.663 68.2309 47.1708 68.0679 46.7617C67.8218 46.3526 67.4127 46.0266 66.9238 46.0266H55.063L65.5369 20.9878C65.6999 20.5787 65.62 20.1696 65.4538 19.8436C65.2077 19.5176 64.7986 19.2715 64.3895 19.2715H46.7178C46.1457 19.2715 45.6535 19.6806 45.4905 20.1728L35.4257 56.3368C35.3426 56.7459 35.4257 57.155 35.6718 57.4011C35.9179 57.7271 36.2439 57.8933 36.653 57.8933H44.9979L37.9632 83.0916C37.797 83.7468 38.0439 84.3192 38.616 84.5653ZM47.8626 56.9925C47.9457 56.5834 47.8626 56.1743 47.6165 55.9282C47.3704 55.6022 47.0444 55.436 46.6353 55.436H38.2904L47.6998 21.8093H62.511L52.0371 46.8448C51.8741 47.2539 51.954 47.663 52.1202 47.989C52.3663 48.315 52.7754 48.5611 53.1845 48.5611H64.3932L42.1355 77.5273L47.8626 56.9925Z" fill="#8DD140"/>
<path d="M35.5101 76.3831C35.7562 76.5461 36.0023 76.6292 36.2453 76.6292C36.6544 76.6292 37.0635 76.4662 37.3096 76.0571C37.7187 75.4849 37.5557 74.6668 36.9836 74.3375C29.4535 69.2653 24.9535 60.9999 24.9535 51.9996C24.9535 41.6886 31.0069 32.1164 40.3366 27.6997C40.9918 27.3737 41.2379 26.6354 40.9087 26.0633C40.5827 25.4081 39.8444 25.1619 39.2723 25.4912C29.0447 30.2342 22.499 40.7082 22.499 51.9994C22.499 61.8179 27.3283 70.9019 35.5101 76.3831Z" fill="#8DD140"/>
<path d="M65.5377 27.537C65.2117 28.1091 65.3747 28.9273 65.9468 29.2566C73.8828 34.1658 78.5456 42.6735 78.5456 52.0036C78.5456 66.8148 66.5188 78.8416 51.7076 78.8416C50.5634 78.8416 49.4159 78.7585 48.3516 78.5955C47.6964 78.5124 47.0412 79.0046 46.9613 79.6598C46.8782 80.315 47.3704 80.9702 48.0256 81.05C49.1698 81.213 50.3971 81.2962 51.7076 81.2962C67.9089 81.2962 81.0002 68.1214 81.0002 52.0036C81.0002 41.776 75.8449 32.5294 67.1742 27.1317C66.682 26.7993 65.9468 26.9617 65.5377 27.537Z" fill="#8DD140"/>
</g>
<defs>
<clipPath id="clip0_127_249">
<rect width="104" height="104" fill="white"/>
</clipPath>
</defs>
</svg>
