<svg width="104" height="104" viewBox="0 0 104 104" fill="none" xmlns="http://www.w3.org/2000/svg">
<g clip-path="url(#clip0_126_173)">
<path d="M52 103.5C80.4427 103.5 103.5 80.4427 103.5 52C103.5 23.5573 80.4427 0.5 52 0.5C23.5573 0.5 0.5 23.5573 0.5 52C0.5 80.4427 23.5573 103.5 52 103.5Z" fill="white" stroke="#C8C8C8"/>
<path d="M52 103.5C80.4427 103.5 103.5 80.4427 103.5 52C103.5 23.5573 80.4427 0.5 52 0.5C23.5573 0.5 0.5 23.5573 0.5 52C0.5 80.4427 23.5573 103.5 52 103.5Z" fill="white" stroke="#C8C8C8"/>
<path d="M43.6305 71.7188C42.9162 71.4152 42.0919 71.7481 41.7891 72.4624L39.9205 76.8646C39.6177 77.5781 39.9506 78.4024 40.6641 78.7053C40.8438 78.7815 41.0293 78.8175 41.2127 78.8175C41.759 78.8175 42.2789 78.4955 42.5055 77.9609L44.3741 73.5587C44.6769 72.8459 44.344 72.0217 43.6305 71.7188Z" fill="#8DD140"/>
<path d="M60.3709 32.2813C60.5498 32.3569 60.7354 32.3928 60.9187 32.3928C61.465 32.3928 61.985 32.0716 62.2116 31.537L64.0794 27.1355C64.3822 26.422 64.0493 25.597 63.3358 25.2941C62.623 24.992 61.798 25.3249 61.4951 26.0385L59.6266 30.4399C59.3237 31.1535 59.6566 31.9777 60.3709 32.2813Z" fill="#8DD140"/>
<path d="M77.9615 61.4942L73.5571 59.6242C72.845 59.3214 72.0193 59.6536 71.7164 60.3678C71.4136 61.0814 71.7465 61.9056 72.46 62.2085L76.8644 64.0785C77.0433 64.1548 77.2289 64.1907 77.4122 64.1907C77.9586 64.1907 78.4785 63.8688 78.7051 63.3342C79.0087 62.6214 78.675 61.7971 77.9615 61.4942Z" fill="#8DD140"/>
<path d="M26.0377 42.5046L30.4421 44.3739C30.621 44.4501 30.8065 44.4861 30.9899 44.4861C31.5362 44.4861 32.0561 44.1649 32.2827 43.6303C32.5856 42.9167 32.2527 42.0925 31.5391 41.7896L27.1347 39.9203C26.4212 39.6167 25.5962 39.9504 25.2941 40.6639C24.9912 41.3775 25.3241 42.2017 26.0377 42.5046Z" fill="#8DD140"/>
<path d="M61.854 72.6406C61.5636 71.9212 60.7459 71.5758 60.0258 71.8647C59.3064 72.1551 58.9588 72.9735 59.2499 73.6929L61.04 78.1244C61.2607 78.6715 61.7865 79.0037 62.3431 79.0037C62.5176 79.0037 62.6966 78.97 62.8682 78.901C63.5876 78.6106 63.9352 77.7922 63.644 77.0728L61.854 72.6406Z" fill="#8DD140"/>
<path d="M42.1461 31.3589C42.3668 31.9059 42.8934 32.2374 43.4485 32.2374C43.6238 32.2374 43.802 32.2044 43.9743 32.1347C44.6937 31.8443 45.0406 31.0259 44.7502 30.3065L42.9601 25.8757C42.6697 25.1563 41.8498 24.8102 41.1319 25.0999C40.4125 25.3903 40.0656 26.2087 40.356 26.9281L42.1461 31.3589Z" fill="#8DD140"/>
<path d="M71.8613 43.9753C72.0821 44.5223 72.6079 44.8538 73.1645 44.8538C73.339 44.8538 73.5179 44.8208 73.6895 44.7511L78.1233 42.9603C78.8427 42.6699 79.1903 41.8515 78.8991 41.1321C78.6087 40.4135 77.7918 40.0651 77.0709 40.3563L72.6372 42.1471C71.9185 42.4375 71.5709 43.2559 71.8613 43.9753Z" fill="#8DD140"/>
<path d="M32.1375 60.025C31.8471 59.3048 31.028 58.9602 30.3093 59.2491L25.8756 61.0399C25.1562 61.3303 24.8093 62.1487 25.0997 62.8681C25.3204 63.4152 25.847 63.7474 26.4021 63.7474C26.5774 63.7474 26.7556 63.7136 26.9279 63.6447L31.3616 61.8539C32.081 61.5628 32.4279 60.7444 32.1375 60.025Z" fill="#8DD140"/>
<path d="M51.9998 33.1348C41.5974 33.1348 33.1348 41.5974 33.1348 51.9998C33.1348 62.4021 41.5974 70.8648 51.9998 70.8648C62.4021 70.8648 70.8648 62.4021 70.8648 51.9998C70.8648 41.5974 62.4021 33.1348 51.9998 33.1348ZM51.9998 68.0561C43.1462 68.0561 35.9427 60.8533 35.9427 51.9998C35.9427 43.1462 43.1455 35.9427 51.9998 35.9427C60.8533 35.9427 68.0561 43.1455 68.0561 51.9998C68.0561 60.8533 60.8533 68.0561 51.9998 68.0561Z" fill="#8DD140"/>
<path d="M34.8627 67.1516L28.6653 73.349C28.1168 73.8976 28.1168 74.7864 28.6653 75.3349C28.9396 75.6092 29.2989 75.7463 29.6582 75.7463C30.0176 75.7463 30.3769 75.6092 30.6512 75.3349L36.8486 69.1375C37.3971 68.589 37.3971 67.7002 36.8486 67.1516C36.3008 66.6031 35.4105 66.6031 34.8627 67.1516Z" fill="#8DD140"/>
<path d="M68.1451 37.26C68.5044 37.26 68.8637 37.1228 69.138 36.8486L75.3347 30.6512C75.8832 30.1026 75.8832 29.2138 75.3347 28.6653C74.7861 28.1168 73.8973 28.1168 73.3488 28.6653L67.1521 34.8627C66.6036 35.4112 66.6036 36.3 67.1521 36.8486C67.4264 37.1228 67.7857 37.26 68.1451 37.26Z" fill="#8DD140"/>
<path d="M69.139 67.1536C68.5904 66.6051 67.7016 66.6051 67.1531 67.1536C66.6046 67.7021 66.6046 68.5909 67.1531 69.1395L73.3483 75.3347C73.6226 75.6089 73.9819 75.7461 74.3412 75.7461C74.7006 75.7461 75.0599 75.6089 75.3342 75.3347C75.8827 74.7861 75.8827 73.8973 75.3342 73.3488L69.139 67.1536Z" fill="#8DD140"/>
<path d="M34.8627 36.8486C35.137 37.1228 35.4963 37.26 35.8556 37.26C36.215 37.26 36.5743 37.1228 36.8486 36.8486C37.3971 36.3 37.3971 35.4112 36.8486 34.8627L30.6512 28.6653C30.1034 28.1168 29.2131 28.1168 28.6653 28.6653C28.1168 29.2138 28.1168 30.1026 28.6653 30.6512L34.8627 36.8486Z" fill="#8DD140"/>
<path d="M52 73.4268C51.2249 73.4268 50.5957 74.0552 50.5957 74.8311V83.5959C50.5957 84.371 51.2242 85.0002 52 85.0002C52.7759 85.0002 53.4044 84.3718 53.4044 83.5959V74.8311C53.4044 74.0552 52.7752 73.4268 52 73.4268Z" fill="#8DD140"/>
<path d="M52 30.5742C52.7752 30.5742 53.4044 29.9457 53.4044 29.1699V20.4043C53.4044 19.6292 52.7759 19 52 19C51.2242 19 50.5957 19.6285 50.5957 20.4043V29.1699C50.5957 29.945 51.2249 30.5742 52 30.5742Z" fill="#8DD140"/>
<path d="M83.5959 50.5957H74.8311C74.056 50.5957 73.4268 51.2242 73.4268 52C73.4268 52.7759 74.0552 53.4044 74.8311 53.4044H83.5959C84.371 53.4044 85.0002 52.7759 85.0002 52C85.0002 51.2242 84.3718 50.5957 83.5959 50.5957Z" fill="#8DD140"/>
<path d="M30.572 52C30.572 51.2249 29.9435 50.5957 29.1677 50.5957H20.4043C19.6285 50.5957 19 51.2242 19 52C19 52.7759 19.6285 53.4044 20.4043 53.4044H29.1677C29.9435 53.4044 30.572 52.7752 30.572 52Z" fill="#8DD140"/>
<path d="M43.6305 71.7188C42.9162 71.4152 42.0919 71.7481 41.7891 72.4624L39.9205 76.8646C39.6177 77.5781 39.9506 78.4024 40.6641 78.7053C40.8438 78.7815 41.0293 78.8175 41.2127 78.8175C41.759 78.8175 42.2789 78.4955 42.5055 77.9609L44.3741 73.5587C44.6769 72.8459 44.344 72.0217 43.6305 71.7188Z" fill="#8DD140"/>
<path d="M60.3709 32.2813C60.5498 32.3569 60.7354 32.3928 60.9187 32.3928C61.465 32.3928 61.985 32.0716 62.2116 31.537L64.0794 27.1355C64.3822 26.422 64.0493 25.597 63.3358 25.2941C62.623 24.992 61.798 25.3249 61.4951 26.0385L59.6266 30.4399C59.3237 31.1535 59.6566 31.9777 60.3709 32.2813Z" fill="#8DD140"/>
<path d="M77.9615 61.4942L73.5571 59.6242C72.845 59.3214 72.0193 59.6536 71.7164 60.3678C71.4136 61.0814 71.7465 61.9056 72.46 62.2085L76.8644 64.0785C77.0433 64.1548 77.2289 64.1907 77.4122 64.1907C77.9586 64.1907 78.4785 63.8688 78.7051 63.3342C79.0087 62.6214 78.675 61.7971 77.9615 61.4942Z" fill="#8DD140"/>
<path d="M26.0377 42.5046L30.4421 44.3739C30.621 44.4501 30.8065 44.4861 30.9899 44.4861C31.5362 44.4861 32.0561 44.1649 32.2827 43.6303C32.5856 42.9167 32.2527 42.0925 31.5391 41.7896L27.1347 39.9203C26.4212 39.6167 25.5962 39.9504 25.2941 40.6639C24.9912 41.3775 25.3241 42.2017 26.0377 42.5046Z" fill="#8DD140"/>
<path d="M61.854 72.6406C61.5636 71.9212 60.7459 71.5758 60.0258 71.8647C59.3064 72.1551 58.9588 72.9735 59.2499 73.6929L61.04 78.1244C61.2607 78.6715 61.7865 79.0037 62.3431 79.0037C62.5176 79.0037 62.6966 78.97 62.8682 78.901C63.5876 78.6106 63.9352 77.7922 63.644 77.0728L61.854 72.6406Z" fill="#8DD140"/>
<path d="M42.1461 31.3589C42.3668 31.9059 42.8934 32.2374 43.4485 32.2374C43.6238 32.2374 43.802 32.2044 43.9743 32.1347C44.6937 31.8443 45.0406 31.0259 44.7502 30.3065L42.9601 25.8757C42.6697 25.1563 41.8498 24.8102 41.1319 25.0999C40.4125 25.3903 40.0656 26.2087 40.356 26.9281L42.1461 31.3589Z" fill="#8DD140"/>
<path d="M71.8613 43.9753C72.0821 44.5223 72.6079 44.8538 73.1645 44.8538C73.339 44.8538 73.5179 44.8208 73.6895 44.7511L78.1233 42.9603C78.8427 42.6699 79.1903 41.8515 78.8991 41.1321C78.6087 40.4135 77.7918 40.0651 77.0709 40.3563L72.6372 42.1471C71.9185 42.4375 71.5709 43.2559 71.8613 43.9753Z" fill="#8DD140"/>
<path d="M32.1375 60.025C31.8471 59.3048 31.028 58.9602 30.3093 59.2491L25.8756 61.0399C25.1562 61.3303 24.8093 62.1487 25.0997 62.8681C25.3204 63.4152 25.847 63.7474 26.4021 63.7474C26.5774 63.7474 26.7556 63.7136 26.9279 63.6447L31.3616 61.8539C32.081 61.5628 32.4279 60.7444 32.1375 60.025Z" fill="#8DD140"/>
<path d="M51.9998 33.1348C41.5974 33.1348 33.1348 41.5974 33.1348 51.9998C33.1348 62.4021 41.5974 70.8648 51.9998 70.8648C62.4021 70.8648 70.8648 62.4021 70.8648 51.9998C70.8648 41.5974 62.4021 33.1348 51.9998 33.1348ZM51.9998 68.0561C43.1462 68.0561 35.9427 60.8533 35.9427 51.9998C35.9427 43.1462 43.1455 35.9427 51.9998 35.9427C60.8533 35.9427 68.0561 43.1455 68.0561 51.9998C68.0561 60.8533 60.8533 68.0561 51.9998 68.0561Z" fill="#8DD140"/>
<path d="M34.8627 67.1516L28.6653 73.349C28.1168 73.8976 28.1168 74.7864 28.6653 75.3349C28.9396 75.6092 29.2989 75.7463 29.6582 75.7463C30.0176 75.7463 30.3769 75.6092 30.6512 75.3349L36.8486 69.1375C37.3971 68.589 37.3971 67.7002 36.8486 67.1516C36.3008 66.6031 35.4105 66.6031 34.8627 67.1516Z" fill="#8DD140"/>
<path d="M68.1451 37.26C68.5044 37.26 68.8637 37.1228 69.138 36.8486L75.3347 30.6512C75.8832 30.1026 75.8832 29.2138 75.3347 28.6653C74.7861 28.1168 73.8973 28.1168 73.3488 28.6653L67.1521 34.8627C66.6036 35.4112 66.6036 36.3 67.1521 36.8486C67.4264 37.1228 67.7857 37.26 68.1451 37.26Z" fill="#8DD140"/>
<path d="M69.139 67.1536C68.5904 66.6051 67.7016 66.6051 67.1531 67.1536C66.6046 67.7021 66.6046 68.5909 67.1531 69.1395L73.3483 75.3347C73.6226 75.6089 73.9819 75.7461 74.3412 75.7461C74.7006 75.7461 75.0599 75.6089 75.3342 75.3347C75.8827 74.7861 75.8827 73.8973 75.3342 73.3488L69.139 67.1536Z" fill="#8DD140"/>
<path d="M34.8627 36.8486C35.137 37.1228 35.4963 37.26 35.8556 37.26C36.215 37.26 36.5743 37.1228 36.8486 36.8486C37.3971 36.3 37.3971 35.4112 36.8486 34.8627L30.6512 28.6653C30.1034 28.1168 29.2131 28.1168 28.6653 28.6653C28.1168 29.2138 28.1168 30.1026 28.6653 30.6512L34.8627 36.8486Z" fill="#8DD140"/>
<path d="M52 73.4268C51.2249 73.4268 50.5957 74.0552 50.5957 74.8311V83.5959C50.5957 84.371 51.2242 85.0002 52 85.0002C52.7759 85.0002 53.4044 84.3718 53.4044 83.5959V74.8311C53.4044 74.0552 52.7752 73.4268 52 73.4268Z" fill="#8DD140"/>
<path d="M52 30.5742C52.7752 30.5742 53.4044 29.9457 53.4044 29.1699V20.4043C53.4044 19.6292 52.7759 19 52 19C51.2242 19 50.5957 19.6285 50.5957 20.4043V29.1699C50.5957 29.945 51.2249 30.5742 52 30.5742Z" fill="#8DD140"/>
<path d="M83.5959 50.5957H74.8311C74.056 50.5957 73.4268 51.2242 73.4268 52C73.4268 52.7759 74.0552 53.4044 74.8311 53.4044H83.5959C84.371 53.4044 85.0002 52.7759 85.0002 52C85.0002 51.2242 84.3718 50.5957 83.5959 50.5957Z" fill="#8DD140"/>
<path d="M30.572 52C30.572 51.2249 29.9435 50.5957 29.1677 50.5957H20.4043C19.6285 50.5957 19 51.2242 19 52C19 52.7759 19.6285 53.4044 20.4043 53.4044H29.1677C29.9435 53.4044 30.572 52.7752 30.572 52Z" fill="#8DD140"/>
</g>
<defs>
<clipPath id="clip0_126_173">
<rect width="104" height="104" fill="white"/>
</clipPath>
</defs>
</svg>
