<svg width="104" height="104" viewBox="0 0 104 104" fill="none" xmlns="http://www.w3.org/2000/svg">
<g clip-path="url(#clip0_128_255)">
<path d="M52 103.5C80.4427 103.5 103.5 80.4427 103.5 52C103.5 23.5573 80.4427 0.5 52 0.5C23.5573 0.5 0.5 23.5573 0.5 52C0.5 80.4427 23.5573 103.5 52 103.5Z" fill="white" stroke="#C8C8C8"/>
<path d="M55.2612 46.8981C50.32 52.1863 45.7475 58.1019 41.6175 64.4657C40.7325 62.4939 39.7738 60.522 38.7413 58.6397C35.7175 53.5308 31.9562 49.1388 27.7525 45.6432C25.835 49.0492 23.9175 52.4552 22 55.8612C24.7288 57.7434 28.3425 60.7012 32.03 65.362C35.6438 70.0228 37.93 74.594 39.2575 78H45.6737C49.5825 68.9473 54.3762 60.4323 60.055 52.7241C66.1762 44.2988 73.33 36.8594 81 30.406L79.3037 27C70.7487 32.3779 62.6362 38.9209 55.2612 46.8981Z" fill="#8DD140"/>
</g>
<defs>
<clipPath id="clip0_128_255">
<rect width="104" height="104" fill="white"/>
</clipPath>
</defs>
</svg>
