<svg width="104" height="104" viewBox="0 0 104 104" fill="none" xmlns="http://www.w3.org/2000/svg">
<g clip-path="url(#clip0_127_229)">
<mask id="mask0_127_229" style="mask-type:luminance" maskUnits="userSpaceOnUse" x="0" y="0" width="104" height="104">
<path d="M104 0H0V104H104V0Z" fill="white"/>
</mask>
<g mask="url(#mask0_127_229)">
<path d="M52 103.5C80.4427 103.5 103.5 80.4427 103.5 52C103.5 23.5573 80.4427 0.5 52 0.5C23.5573 0.5 0.5 23.5573 0.5 52C0.5 80.4427 23.5573 103.5 52 103.5Z" fill="white" stroke="#C8C8C8"/>
<path d="M52.0435 18C51.227 18 50.5652 18.6618 50.5652 19.4783V25.3913C50.5652 26.2077 51.227 26.8696 52.0435 26.8696C52.8599 26.8696 53.5217 26.2077 53.5217 25.3913V19.4783C53.5217 18.6618 52.8599 18 52.0435 18ZM31.14 26.6617C30.7616 26.6617 30.3892 26.8118 30.1005 27.1005C29.5233 27.6778 29.5233 28.602 30.1005 29.1793L34.2813 33.3601C34.8584 33.9373 35.7828 33.9373 36.36 33.3601C36.9374 32.7828 36.9374 31.8586 36.36 31.2813L32.1793 27.1005C31.8907 26.8118 31.5182 26.6617 31.14 26.6617ZM72.947 26.6617C72.5688 26.6617 72.1963 26.8118 71.9076 27.1005L67.7269 31.2813C67.1496 31.8586 67.1496 32.7828 67.7269 33.3601C68.3042 33.9373 69.2285 33.9373 69.8057 33.3601L73.9864 29.1793C74.5637 28.602 74.5637 27.6778 73.9864 27.1005C73.6977 26.8118 73.3254 26.6617 72.947 26.6617ZM52.0435 29.8261C42.2651 29.8261 32.8261 37.4283 32.8261 48.1889C32.8261 54.9749 35.4675 59.2874 37.9076 62.7404C40.3477 66.1934 42.4348 68.7301 42.4348 72.6957V81.5652C42.4348 84.0741 44.5149 86 46.8696 86H57.2174C59.572 86 61.6522 84.0741 61.6522 81.5652V72.6957C61.6522 68.7301 63.7393 66.1934 66.1793 62.7404C68.6194 59.2874 71.2609 54.9749 71.2609 48.1889C71.2609 37.4283 61.8219 29.8261 52.0435 29.8261ZM52.0435 32.7826C60.2928 32.7826 68.3043 39.1669 68.3043 48.1889C68.3043 54.237 66.1414 57.6856 63.7772 61.0312C61.6542 64.0354 59.2573 67.0089 58.788 71.2174H45.2989C44.8296 67.0089 42.4328 64.0354 40.3098 61.0312C37.9455 57.6856 35.7826 54.237 35.7826 48.1889C35.7826 39.1669 43.7942 32.7826 52.0435 32.7826ZM50.4035 35.0924C43.4248 35.9064 38 41.8611 38 49.0435C38 50.479 38.2228 51.8501 38.6237 53.1549C38.7892 53.9568 39.7109 54.5012 40.4946 54.2636C41.2782 54.0259 41.7495 53.0591 41.4415 52.3003C41.125 51.2693 40.9565 50.1789 40.9565 49.0435C40.9565 43.3422 45.213 38.6689 50.7269 38.0258C51.5009 37.9654 52.1501 37.2061 52.0897 36.4321C52.0653 35.4136 51.2009 35.0355 50.4035 35.0924ZM22.4783 47.5652C21.6618 47.5652 21 48.227 21 49.0435C21 49.8599 21.6618 50.5217 22.4783 50.5217H28.3913C29.2077 50.5217 29.8696 49.8599 29.8696 49.0435C29.8696 48.227 29.2077 47.5652 28.3913 47.5652H22.4783ZM75.6957 47.5652C74.8792 47.5652 74.2174 48.227 74.2174 49.0435C74.2174 49.8599 74.8792 50.5217 75.6957 50.5217H81.6087C82.4251 50.5217 83.087 49.8599 83.087 49.0435C83.087 48.227 82.4251 47.5652 81.6087 47.5652H75.6957ZM45.3913 74.1739H58.6957V77.1304H45.3913V74.1739ZM45.3913 80.087H58.6957V81.5652C58.6957 82.4535 57.9826 83.0435 57.2174 83.0435H46.8696C46.1043 83.0435 45.3913 82.4535 45.3913 81.5652V80.087Z" fill="#8DD140"/>
</g>
</g>
<defs>
<clipPath id="clip0_127_229">
<rect width="104" height="104" fill="white"/>
</clipPath>
</defs>
</svg>
