<svg width="104" height="104" viewBox="0 0 104 104" fill="none" xmlns="http://www.w3.org/2000/svg">
<g clip-path="url(#clip0_128_271)">
<path d="M52 103.5C80.4427 103.5 103.5 80.4427 103.5 52C103.5 23.5573 80.4427 0.5 52 0.5C23.5573 0.5 0.5 23.5573 0.5 52C0.5 80.4427 23.5573 103.5 52 103.5Z" fill="white" stroke="#C8C8C8"/>
<path d="M33.4238 70.6645L48.0817 85.3223C49.1413 86.3819 50.6424 87 52.0552 87C53.468 87 54.9691 86.4702 56.0287 85.3223L70.6865 70.6645L85.3444 56.0066C87.5519 53.7991 87.5519 50.2671 85.3444 48.0596L70.6865 33.4018L56.0287 18.6556C53.8212 16.4481 50.2892 16.4481 48.0817 18.6556L33.4238 33.4018L18.6777 48.0596C17.6181 49.1192 17 50.532 17 52.0331C17 53.5342 17.6181 54.947 18.6777 56.0066L33.4238 70.6645ZM52.0552 18.8322C53.1148 18.8322 54.0861 19.2737 54.7925 19.9801L68.8322 34.0199L63.8874 38.9647C63.6225 39.2296 63.5342 39.5828 63.7108 39.936C63.8874 40.2892 64.1523 40.4658 64.5055 40.4658C65.1236 40.4658 65.7417 40.5541 66.2715 40.7307C67.2428 40.9956 68.0375 41.5254 68.7439 42.3201C70.8631 44.5276 70.9514 48.2362 68.8322 50.532C67.6843 51.7682 66.1832 52.3863 64.5938 52.4746C64.5055 52.4746 64.3289 52.4746 64.2406 52.4746C64.1523 52.4746 64.064 52.4746 63.9757 52.4746C63.8874 52.4746 63.7991 52.4746 63.6225 52.4746C63.5342 52.4746 63.4459 52.4746 63.3576 52.4746C63.181 52.4746 63.0927 52.3863 62.9161 52.3863C62.8278 52.3863 62.8278 52.3863 62.7395 52.3863C62.6512 52.0331 62.4746 52.0331 62.298 51.9448C62.298 51.9448 62.298 51.9448 62.2097 51.9448C61.6799 51.7682 61.1501 51.415 60.7086 51.0618C60.532 50.9735 60.4437 50.7969 60.2671 50.6203C59.1192 49.4724 58.5011 48.0596 58.5011 46.4702C58.5011 46.117 58.2362 45.7638 57.9713 45.6755C57.883 45.6755 57.7947 45.5872 57.7064 45.5872C57.7064 45.5872 57.7064 45.5872 57.6181 45.5872C57.6181 45.5872 57.6181 45.5872 57.5298 45.5872C57.4415 45.5872 57.4415 45.5872 57.3532 45.5872C57.2649 45.5872 57.1766 45.5872 57.1766 45.6755C57.1766 45.6755 57.1766 45.6755 57.0883 45.6755C57 45.6755 57 45.7638 56.9117 45.8521L52.0552 50.7969L48.4349 47.1766C49.7594 46.8234 50.9956 46.117 51.9669 45.1457C52.1435 44.9691 52.3201 44.7925 52.4967 44.5276C53.6446 43.1148 54.2627 41.3488 54.2627 39.4945C54.2627 37.3753 53.3797 35.4327 51.7903 33.9316C49.3179 31.6358 45.6976 31.2826 42.872 32.7837C42.5188 32.9603 42.0773 33.2252 41.7241 33.4901C41.5475 33.6667 41.3709 33.8433 41.1943 34.0199C40.1347 34.9912 39.4283 36.2274 39.0751 37.6402L35.2781 34.0199L49.3179 19.9801C50.0243 19.1854 50.9956 18.8322 52.0552 18.8322ZM52.0552 85.234C50.9956 85.234 50.0243 84.7925 49.3179 84.0861L35.2781 70.0464L40.223 65.1015C40.4879 64.8366 40.5762 64.4834 40.3996 64.1302C40.223 63.777 39.9581 63.6004 39.6049 63.6004C39.1634 63.6004 38.8102 63.5121 38.457 63.5121C37.3091 63.2472 36.2494 62.7174 35.3664 61.8344C35.1015 61.5695 34.8366 61.2163 34.66 60.9514C34.0419 59.9801 33.777 58.9205 33.777 57.7726C33.777 56.2715 34.3068 54.7704 35.3664 53.6225C36.5143 52.3863 38.0155 51.7682 39.6049 51.6799C41.2826 51.6799 42.7837 52.298 43.9316 53.4459C45.0795 54.5938 45.6976 56.0066 45.6976 57.596C45.6976 57.9492 45.9625 58.3024 46.2274 58.3907C46.5806 58.5673 46.9338 58.479 47.1987 58.2141L52.1435 53.2693L55.7638 56.8896C54.4393 57.2428 53.2031 57.9492 52.2318 58.9205C52.0552 59.0971 51.8786 59.2737 51.702 59.5386C50.5541 60.9514 49.936 62.7174 49.936 64.5717C49.936 66.6909 50.819 68.6336 52.4084 70.1347C55.3223 72.872 60.0905 72.872 63.0044 70.0464C64.064 69.0751 64.7704 67.8389 65.1236 66.426L68.7439 70.0464L54.7925 84.1744C54.0861 84.8808 53.1148 85.234 52.0552 85.234ZM34.0419 35.2561L38.9868 40.2009C39.2517 40.4658 39.6049 40.5541 39.9581 40.3775C40.3113 40.2009 40.4879 39.936 40.4879 39.5828C40.4879 37.9934 41.1943 36.4923 42.3422 35.3444C44.5497 33.2252 48.2583 33.1369 50.5541 35.2561C51.7903 36.404 52.4084 37.9051 52.4967 39.4945C52.4967 41.1722 51.8786 42.6733 50.7307 43.8212C49.5828 44.9691 48.17 45.5872 46.5806 45.5872C46.2274 45.5872 45.8742 45.8521 45.7859 46.117C45.6093 46.4702 45.6976 46.8234 45.9625 47.0883L50.9073 52.0331L47.287 55.6534C46.9338 54.3289 46.2274 53.0927 45.2561 52.1214C43.755 50.6203 41.7241 49.8256 39.6049 49.8256C39.34 49.8256 39.0751 49.8256 38.8102 49.9139C36.9559 50.0905 35.3664 50.9735 34.0419 52.298C31.3046 55.2119 31.3046 59.9801 34.1302 62.894C34.9249 63.6887 35.8079 64.3068 36.7793 64.66C37.1325 64.8366 37.3974 64.9249 37.7506 65.0132L34.0419 68.8102L19.9139 54.7704C19.2075 54.064 18.766 53.0927 18.766 52.0331C18.766 50.9735 19.2075 50.0022 19.9139 49.2958L34.0419 35.2561Z" fill="#8DD140"/>
</g>
<defs>
<clipPath id="clip0_128_271">
<rect width="104" height="104" fill="white"/>
</clipPath>
</defs>
</svg>
