<svg width="28" height="28" viewBox="0 0 28 28" fill="none" xmlns="http://www.w3.org/2000/svg">
<g clip-path="url(#clip0_130_295)">
<path d="M14 27.5C21.4558 27.5 27.5 21.4558 27.5 14C27.5 6.54416 21.4558 0.5 14 0.5C6.54416 0.5 0.5 6.54416 0.5 14C0.5 21.4558 6.54416 27.5 14 27.5Z" fill="white" stroke="#C8C8C8"/>
<path d="M13.2931 19.7071C13.6836 20.0976 14.3168 20.0976 14.7073 19.7071L21.0713 13.3431C21.4618 12.9526 21.4618 12.3195 21.0713 11.9289C20.6807 11.5384 20.0476 11.5384 19.6571 11.9289L14.0002 17.5858L8.34334 11.9289C7.95281 11.5384 7.31965 11.5384 6.92912 11.9289C6.5386 12.3195 6.5386 12.9526 6.92912 13.3431L13.2931 19.7071ZM14.0002 8H13.0002V19H14.0002H15.0002V8H14.0002Z" fill="#8DD140"/>
</g>
<defs>
<clipPath id="clip0_130_295">
<rect width="28" height="28" fill="white"/>
</clipPath>
</defs>
</svg>
