<svg width="104" height="104" viewBox="0 0 104 104" fill="none" xmlns="http://www.w3.org/2000/svg">
<g clip-path="url(#clip0_128_275)">
<path d="M52 103.5C80.4427 103.5 103.5 80.4427 103.5 52C103.5 23.5573 80.4427 0.5 52 0.5C23.5573 0.5 0.5 23.5573 0.5 52C0.5 80.4427 23.5573 103.5 52 103.5Z" fill="white" stroke="#C8C8C8"/>
<path d="M58.1489 57.1831V70.6445H74.3222V41.4999H54.9654L64.6942 55.5199C65.06 56.0502 64.8405 56.7283 64.2031 57.0326C63.9941 57.1311 63.7642 57.1804 63.5412 57.1804L58.149 57.1862L58.1489 57.1831ZM58.1489 72.8701V78.1994C58.1489 78.8138 57.5498 79.3122 56.8113 79.3122C56.2714 79.3122 55.8046 79.0427 55.5921 78.6602L51.5759 72.8701H30.6755V76.1274C30.6755 78.779 31.9817 81.1901 34.0822 82.9376C36.1827 84.6851 39.0808 85.7718 42.2645 85.7718H62.736C65.9232 85.7718 68.8178 84.6851 70.9183 82.9376C73.0188 81.1901 74.325 78.779 74.325 76.1274V72.8701H58.1489ZM50.0328 70.6445L40.304 56.6245C39.9382 56.0942 40.1577 55.4161 40.7951 55.1118C41.0041 55.0132 41.234 54.964 41.457 54.964L46.8492 54.9582V41.4998H30.6759V70.6444L50.0328 70.6445ZM53.429 71.111C53.4778 71.169 53.523 71.2328 53.5579 71.2965L55.4737 74.0554V56.0709C55.4737 55.4565 56.0728 54.958 56.8113 54.958H61.2316L51.5688 41.036C51.5165 40.9751 51.4747 40.9114 51.4364 40.8447L49.5206 38.0859V56.0704C49.5206 56.6848 48.9215 57.1832 48.183 57.1832H43.7627L53.4255 71.1082L53.429 71.111ZM46.849 39.2772V33.9478C46.849 33.3335 47.4481 32.835 48.1866 32.835C48.7265 32.835 49.1933 33.1016 49.4058 33.4871L53.4255 39.2772H74.3259V36.0199C74.3259 33.3654 73.0231 30.9543 70.9261 29.2126C68.8257 27.4622 65.9276 26.3784 62.7369 26.3784H42.2654C39.0817 26.3784 36.1836 27.4651 34.0831 29.2126C31.9792 30.9572 30.6764 33.3683 30.6764 36.0199V39.2772H46.849ZM58.1 24.1525V22.6891C58.1 22.2862 57.9014 21.9211 57.5879 21.6574C57.264 21.3908 56.8216 21.2256 56.3409 21.2256H48.6602C48.176 21.2256 47.7336 21.3908 47.4167 21.6545C47.0997 21.9182 46.9011 22.2862 46.9011 22.689V24.1525H58.1ZM44.2255 24.1525V22.6891C44.2255 21.6777 44.7271 20.7561 45.5248 20.0867C46.3329 19.4173 47.4406 19 48.6598 19H56.3405C57.5597 19 58.6708 19.4144 59.472 20.0838C60.2731 20.7532 60.7747 21.6777 60.7747 22.6891V24.1525H62.7358C66.6545 24.1525 70.2214 25.4885 72.8061 27.6388L72.8131 27.6446C75.3942 29.7948 77 32.7623 77 36.0196V76.1298C77 79.3958 75.3942 82.3633 72.8096 84.5138C70.2285 86.6611 66.6581 88 62.7357 88H42.2643C38.3421 88 34.7717 86.664 32.1904 84.5138C29.6058 82.3635 28 79.396 28 76.1298V36.0196C28 32.7594 29.6058 29.789 32.1904 27.6386C34.768 25.4884 38.3384 24.1524 42.2607 24.1524L44.2255 24.1525Z" fill="#8DD140"/>
</g>
<defs>
<clipPath id="clip0_128_275">
<rect width="104" height="104" fill="white"/>
</clipPath>
</defs>
</svg>
