<svg width="104" height="104" viewBox="0 0 104 104" fill="none" xmlns="http://www.w3.org/2000/svg">
<g clip-path="url(#clip0_126_125)">
<path d="M52 103.5C80.4427 103.5 103.5 80.4427 103.5 52C103.5 23.5573 80.4427 0.5 52 0.5C23.5573 0.5 0.5 23.5573 0.5 52C0.5 80.4427 23.5573 103.5 52 103.5Z" fill="white" stroke="#C8C8C8"/>
<path d="M79.2752 21H24.8161C24.0692 21 23.3529 21.2967 22.8248 21.8248C22.2967 22.3529 22 23.0692 22 23.8161C22 24.563 22.2967 25.2793 22.8248 25.8074C23.3529 26.3355 24.0692 26.6322 24.8161 26.6322H79.2752C80.0221 26.6322 80.7384 26.3355 81.2665 25.8074C81.7947 25.2793 82.0914 24.563 82.0914 23.8161C82.0914 23.0692 81.7947 22.3529 81.2665 21.8248C80.7384 21.2967 80.0221 21 79.2752 21Z" fill="#8DD140"/>
<path d="M79.2752 75.4453H24.8161C24.0692 75.4453 23.3529 75.742 22.8248 76.2701C22.2967 76.7983 22 77.5146 22 78.2614C22 79.0083 22.2967 79.7246 22.8248 80.2527C23.3529 80.7809 24.0692 81.0776 24.8161 81.0776H79.2752C80.0221 81.0776 80.7384 80.7809 81.2665 80.2527C81.7947 79.7246 82.0914 79.0083 82.0914 78.2614C82.0914 77.5146 81.7947 76.7983 81.2665 76.2701C80.7384 75.742 80.0221 75.4453 79.2752 75.4453Z" fill="#8DD140"/>
<path d="M45.9747 58.5767C45.7131 58.3153 45.4026 58.1078 45.0609 57.9664C44.7191 57.8249 44.3529 57.7521 43.983 57.7521C43.6132 57.7522 43.2469 57.8251 42.9052 57.9667C42.5636 58.1083 42.2531 58.3158 41.9916 58.5773C41.4635 59.1056 41.1669 59.822 41.167 60.569C41.1671 61.3159 41.4639 62.0323 41.9922 62.5604L50.051 70.6227C50.1179 70.6896 50.1871 70.7518 50.2587 70.8104L50.2775 70.8257C50.3444 70.8785 50.4112 70.929 50.4816 70.9759L50.5121 70.9947C50.5802 71.0393 50.6494 71.0803 50.7198 71.1179L50.7527 71.1343C50.8243 71.1719 50.897 71.2059 50.9721 71.2364L50.9991 71.247C51.0754 71.2775 51.1528 71.3044 51.2338 71.3291L51.2549 71.335C51.3347 71.3584 51.4168 71.3784 51.5001 71.3948H51.5166C51.5999 71.4112 51.6844 71.423 51.7688 71.4312H51.7841C51.8698 71.4394 51.9554 71.4441 52.0434 71.4441C52.1314 71.4441 52.2171 71.4441 52.3027 71.4312H52.318C52.4036 71.423 52.487 71.4112 52.5703 71.3948H52.5867C52.67 71.3784 52.7521 71.3584 52.8319 71.335L52.853 71.3291C52.9328 71.3044 53.0103 71.2775 53.0877 71.247L53.1147 71.2364C53.1898 71.2059 53.2626 71.1719 53.3341 71.1343L53.367 71.1179C53.4374 71.0803 53.5066 71.0393 53.5747 70.9947L53.6052 70.9759C53.6756 70.929 53.7436 70.8785 53.8094 70.8257L53.8281 70.8104C53.8997 70.7518 53.9689 70.6931 54.0358 70.6227L62.0981 62.5604C62.3597 62.2989 62.5672 61.9884 62.7088 61.6468C62.8504 61.3051 62.9233 60.9388 62.9234 60.569C62.9234 60.1991 62.8506 59.8329 62.7091 59.4911C62.5676 59.1494 62.3602 58.8389 62.0987 58.5773C61.8372 58.3158 61.5268 58.1083 61.1851 57.9667C60.8434 57.8251 60.4772 57.7522 60.1073 57.7521C59.7375 57.7521 59.3712 57.8249 59.0295 57.9664C58.6878 58.1078 58.3772 58.3153 58.1157 58.5767L54.8619 61.8341V40.2438L58.1168 43.4988C58.3776 43.7638 58.6882 43.9745 59.0307 44.1189C59.3733 44.2632 59.7411 44.3383 60.1128 44.3398C60.4846 44.3414 60.8529 44.2693 61.1967 44.1277C61.5404 43.9861 61.8527 43.7779 62.1156 43.515C62.3785 43.2522 62.5867 42.9399 62.7282 42.5961C62.8698 42.2524 62.9419 41.884 62.9404 41.5123C62.9389 41.1405 62.8638 40.7728 62.7194 40.4302C62.5751 40.0876 62.3643 39.777 62.0993 39.5163L54.0405 31.4551C53.9736 31.3883 53.9044 31.3261 53.8328 31.2674L53.814 31.2521C53.7483 31.1993 53.6803 31.1489 53.6099 31.102L53.5794 31.082C53.5113 31.0386 53.4421 30.9975 53.3717 30.9647L53.3388 30.9482C53.2669 30.9107 53.1941 30.8767 53.1206 30.8462L53.0912 30.8356C53.0161 30.8051 52.9387 30.7781 52.8566 30.7535H52.8354C52.7557 30.73 52.6735 30.71 52.5914 30.6936C52.5851 30.6942 52.5789 30.6942 52.5726 30.6936C52.4905 30.6784 52.4072 30.6666 52.3215 30.6584H52.3051C52.2206 30.6502 52.1361 30.6455 52.0493 30.6455C51.9624 30.6455 51.878 30.6455 51.7935 30.6584H51.7771C51.6926 30.6666 51.6081 30.6784 51.526 30.6936C51.5197 30.6942 51.5134 30.6942 51.5072 30.6936C51.425 30.71 51.3429 30.73 51.2631 30.7535H51.242C51.1622 30.7781 51.0848 30.8051 51.0073 30.8356L50.9792 30.8462C50.9041 30.8767 50.8313 30.9107 50.7597 30.9482L50.7269 30.9647C50.6565 31.0022 50.5872 31.0433 50.5192 31.082L50.4887 31.102C50.4183 31.1489 50.3502 31.1993 50.2845 31.2521L50.2657 31.2674C50.1942 31.3261 50.1249 31.3847 50.058 31.4551L41.9957 39.5175C41.4747 40.047 41.184 40.761 41.1871 41.5039C41.1901 42.2469 41.4866 42.9585 42.0119 43.4838C42.5372 44.0091 43.2488 44.3056 43.9917 44.3086C44.7346 44.3116 45.4486 44.021 45.9782 43.4999L49.2296 40.2438V61.8341L45.9747 58.5767Z" fill="#8DD140"/>
</g>
<defs>
<clipPath id="clip0_126_125">
<rect width="104" height="104" fill="white"/>
</clipPath>
</defs>
</svg>
