<svg width="104" height="104" viewBox="0 0 104 104" fill="none" xmlns="http://www.w3.org/2000/svg">
<g clip-path="url(#clip0_128_267)">
<path d="M52 103.5C80.4427 103.5 103.5 80.4427 103.5 52C103.5 23.5573 80.4427 0.5 52 0.5C23.5573 0.5 0.5 23.5573 0.5 52C0.5 80.4427 23.5573 103.5 52 103.5Z" fill="white" stroke="#C8C8C8"/>
<path d="M88.8447 45.4464C88.655 44.8774 88.2676 44.3638 87.7806 44.0902L52.4865 24.2625C51.8653 23.9125 51.1347 23.9125 50.5135 24.2625L15.2194 44.0902C14.5003 44.4927 14 45.4038 14 46.3059V58.6983C14 59.6371 14.4721 60.4957 15.2194 60.915L50.5135 80.7427C51.1224 81.0858 51.8776 81.0858 52.4865 80.7427L87.7806 60.915C88.5279 60.4957 89 59.6371 89 58.6983V46.3059C89 45.9966 88.94 45.7309 88.8447 45.4464ZM49.2941 74.5158L18.4118 57.1666V50.3161L49.2941 67.6654V74.5158ZM51.5 63.3627L21.1382 46.3059L51.5 29.2491L81.8618 46.3059L51.5 63.3627ZM84.5882 57.1666L53.7059 74.5158V67.6654L84.5882 50.3161V57.1666Z" fill="#8DD140"/>
</g>
<defs>
<clipPath id="clip0_128_267">
<rect width="104" height="104" fill="white"/>
</clipPath>
</defs>
</svg>
