<svg width="136" height="111" viewBox="0 0 136 111" fill="none" xmlns="http://www.w3.org/2000/svg">
<g id="Group 1">
<path id="Vector" d="M121.439 28.3134H14.6534C13.7588 28.3134 13.0336 29.0355 13.0336 29.9263V108.563C13.0336 109.454 13.7588 110.176 14.6534 110.176H121.439C122.334 110.176 123.059 109.454 123.059 108.563V29.9263C123.059 29.0355 122.334 28.3134 121.439 28.3134Z" fill="#8DD140"/>
<path id="Vector_2" d="M30.7274 50.0261H106.636C107.533 50.0261 108.256 50.7457 108.256 51.639V108.588C108.256 109.482 107.533 110.176 106.661 110.176H30.7274C29.8302 110.176 29.1325 109.457 29.1325 108.588V51.639C29.1325 50.7457 29.8552 50.0261 30.7523 50.0261H30.7274Z" fill="#363636"/>
<path id="puertaCasita" d="M41.6676 69.4558H95.6961C96.8923 69.4558 97.8393 70.4236 97.8393 71.5899V108.092C97.8393 109.258 96.8674 110.226 95.6961 110.226H41.6427C40.4714 110.226 39.4995 109.258 39.4995 108.092V71.5899C39.4995 70.4236 40.4714 69.4558 41.6427 69.4558H41.6676Z" fill="#8DD140"/>
<path id="Vector_3" d="M84.5565 110.251H68.7566V96.9999H97.8642C97.8642 104.32 91.9081 110.251 84.5565 110.251Z" fill="#7BAF37"/>
<path id="Vector_4" d="M68.7068 82.6323H39.5992V96.9254H68.7068V82.6323Z" fill="#7BAF37"/>
<path id="Vector_5" d="M97.7894 82.7067H68.6819V69.4558H84.4817C91.8334 69.4558 97.7894 75.3865 97.7894 82.7067Z" fill="#7BAF37"/>
<path id="Vector_6" d="M134.946 37.1227L127.196 21.1918C127.022 20.8195 126.673 20.5218 126.274 20.3729L67.3361 0.099458C66.9872 -0.0246144 66.6134 -0.0246144 66.2645 0.099458L9.81874 20.3729C9.44493 20.497 9.14587 20.7699 8.94651 21.1173L0.199287 37.0482C-0.0748421 37.5445 -0.0748421 38.1401 0.224208 38.6363C0.523258 39.1326 1.0466 39.4304 1.61978 39.4304H133.501C134.049 39.4304 134.573 39.1574 134.872 38.686C135.171 38.2145 135.196 37.6438 134.946 37.1475V37.1227Z" fill="#4C4C4C"/>
<path id="Vector_7" d="M134.946 37.1225L127.196 21.1916C126.922 20.6457 126.374 20.2983 125.751 20.2983H10.3671C9.76898 20.2983 9.24564 20.6209 8.94659 21.142L0.199372 37.0481C-0.0747579 37.5444 -0.0747579 38.1399 0.224292 38.6362C0.523343 39.1325 1.04668 39.4303 1.61986 39.4303H133.501C134.049 39.4303 134.573 39.1573 134.872 38.6859C135.171 38.2144 135.196 37.6436 134.946 37.1474V37.1225Z" fill="#363636"/>
</g>
</svg>
